<svg width="176" height="296" viewBox="0 0 176 296" fill="none" xmlns="http://www.w3.org/2000/svg">
<g clip-path="url(#clip0_520_8712)">
<path d="M151.403 91.9862L160.414 96.1054C160.674 96.2222 160.958 96.2725 161.243 96.2518C161.527 96.2311 161.801 96.14 162.041 95.9867C162.281 95.8335 162.479 95.6229 162.618 95.374C162.756 95.125 162.831 94.8455 162.834 94.5607V86.4252C162.832 84.8375 162.39 83.2814 161.557 81.93C160.724 80.5786 159.532 79.4848 158.114 78.7703L145.344 72.3855L149.498 89.6005C149.61 90.1181 149.84 90.6029 150.171 91.0168C150.501 91.4307 150.923 91.7625 151.403 91.9862V91.9862Z" fill="#FF720E"/>
<path d="M199.033 -16.8128L194.331 -13.6719C189.182 -10.2392 184.53 -12.316 182.453 -18.8209C180.188 -25.8751 174.816 -27.5743 169.306 -22.9573L169.014 -22.717C164.466 -18.8896 159.901 -19.2843 157.189 -23.9013L153.979 -29.2735C153.151 -30.8331 151.737 -31.9999 150.049 -32.5173C144.505 -33.9762 124.681 -22.2193 121.832 -11.3891L127.221 13.3606L201.556 32.9613L209.314 3.57744C212.095 -6.99526 209.984 -16.727 204.594 -18.1515C203.626 -18.3413 202.627 -18.3199 201.668 -18.0889C200.708 -17.8579 199.81 -17.4226 199.033 -16.8128Z" fill="#FF720E"/>
<path d="M40.9911 21.326C40.9911 21.326 59.8709 -5.87811 121.831 -11.3704C193.042 -16.1762 236.638 1.77677 266.004 11.989C275.213 15.2494 284.697 17.6735 294.341 19.232C297.162 19.6505 299.739 21.0688 301.602 23.2285C303.465 25.3882 304.49 28.1454 304.49 30.9976C304.49 33.8498 303.465 36.607 301.602 38.7666C299.739 40.9263 297.162 42.3446 294.341 42.7631C226.58 53.0612 271.908 80.0766 151.884 76.6439C139.666 76.6865 127.486 75.2748 115.601 72.4388C118.81 69.9158 121.986 67.2898 125.075 64.6123C131.94 58.2103 145.379 47.1227 142.359 36.55C137.57 23.849 127.512 13.6711 116.528 6.17065C126.705 14.3919 135.665 24.8445 139.389 37.5111C140.471 43.7415 134.858 48.736 130.808 52.9582C123.638 59.3861 115.951 65.2127 107.826 70.3792C85.1005 63.7283 63.9588 52.5415 45.6767 37.494C48.6752 35.057 52.4781 33.8322 56.3352 34.0613C50.5139 30.7478 45.3203 26.4372 40.9911 21.326ZM91.7606 42.7288H90.8853C91.4173 42.7288 91.9323 42.7288 92.4643 42.7288H91.7606Z" fill="#D4EFEE"/>
<path d="M85.6499 28.8458C81.9436 28.8458 78.939 25.8412 78.939 22.1349C78.939 18.4285 81.9436 15.424 85.6499 15.424C89.3563 15.424 92.3608 18.4285 92.3608 22.1349C92.3608 25.8412 89.3563 28.8458 85.6499 28.8458Z" fill="white"/>
<path d="M162.425 48.497L182.3 58.9496C185.029 59.5583 187.862 59.528 190.577 58.8611C193.292 58.1942 195.817 56.9087 197.953 55.1049L210.534 44.4979C211.029 44.0816 211.423 43.5594 211.688 42.9699C211.953 42.3804 212.082 41.7388 212.066 41.0926C212.049 40.4465 211.888 39.8122 211.593 39.2371C211.298 38.6619 210.878 38.1604 210.362 37.7698L201.935 31.385C199.947 29.871 197.611 28.8784 195.141 28.4977C192.671 28.117 190.145 28.3603 187.793 29.2053L157.705 39.8295L162.425 48.497Z" fill="#FF720E"/>
<path d="M85.6499 28.8458C81.9436 28.8458 78.939 25.8412 78.939 22.1349C78.939 18.4285 81.9436 15.424 85.6499 15.424C89.3563 15.424 92.3608 18.4285 92.3608 22.1349C92.3608 25.8412 89.3563 28.8458 85.6499 28.8458Z" fill="#FF720E"/>
<path d="M114.235 135.076L122.282 145.072C123.58 146.011 125.077 146.639 126.657 146.905C128.238 147.171 129.858 147.069 131.392 146.606L140.423 143.871C140.778 143.764 141.104 143.579 141.378 143.329C141.651 143.079 141.865 142.77 142.003 142.426C142.141 142.082 142.199 141.712 142.175 141.342C142.15 140.972 142.042 140.613 141.86 140.29L138.908 135.027C138.204 133.778 137.199 132.724 135.984 131.961C134.77 131.198 133.384 130.751 131.953 130.659L113.753 129.459L114.235 135.076Z" fill="#660066"/>
<path d="M192.388 113.282C199.077 109.917 205.531 91.5107 199.766 89.7891C193.499 88.1658 167.99 97.4725 160.414 115.938C171.088 134.404 197.228 129.466 197.228 129.466C201.704 127.764 197.956 116.322 192.388 113.282Z" fill="#660066"/>
<path d="M81.2873 151.435L86.4522 153.796C86.6011 153.863 86.7643 153.892 86.9272 153.88C87.09 153.868 87.2473 153.816 87.385 153.728C87.5226 153.64 87.6362 153.519 87.7155 153.377C87.7948 153.234 87.8374 153.074 87.8394 152.911V148.247C87.8384 147.337 87.585 146.445 87.1074 145.671C86.6298 144.896 85.9466 144.269 85.1339 143.86L77.8145 140.2L80.1953 150.067C80.2595 150.364 80.3914 150.642 80.5809 150.879C80.7703 151.116 81.0121 151.307 81.2873 151.435V151.435Z" fill="#660066"/>
<path d="M108.588 89.0724L105.893 90.8727C102.941 92.8403 100.275 91.6499 99.0849 87.9213C97.7863 83.8779 94.707 82.904 91.549 85.5504L91.3818 85.6881C88.7747 87.882 86.1578 87.6557 84.6034 85.0093L82.7637 81.93C82.289 81.036 81.4786 80.3672 80.5108 80.0707C77.3332 79.2344 65.9704 85.9734 64.3373 92.1812L67.4264 106.367L110.035 117.602L114.481 100.76C116.075 94.6997 114.865 89.1216 111.776 88.305C111.221 88.1963 110.648 88.2085 110.098 88.3409C109.548 88.4733 109.033 88.7228 108.588 89.0724Z" fill="#660066"/>
<path d="M17.9999 110.933C17.9999 110.933 28.8216 95.3399 64.3366 92.1918C105.154 89.4372 130.143 99.7277 146.975 105.581C152.254 107.45 157.69 108.84 163.218 109.733C164.835 109.973 166.312 110.786 167.38 112.024C168.448 113.262 169.035 114.842 169.035 116.477C169.035 118.112 168.448 119.692 167.38 120.93C166.312 122.168 164.835 122.981 163.218 123.221C124.378 129.123 150.36 144.608 81.5628 142.641C74.5593 142.665 67.5777 141.856 60.7654 140.23C62.6051 138.784 64.4251 137.279 66.196 135.744C70.1311 132.075 77.8343 125.72 76.1028 119.659C73.358 112.379 67.5929 106.545 61.2967 102.246C67.1306 106.959 72.266 112.95 74.4008 120.21C75.0206 123.781 71.8036 126.644 69.4818 129.064C65.3723 132.749 60.9664 136.089 56.3088 139.05C43.283 135.238 31.1647 128.826 20.6856 120.2C22.4043 118.804 24.5841 118.102 26.795 118.233C23.4583 116.334 20.4813 113.863 17.9999 110.933ZM47.1005 123.201H46.5988C46.9037 123.201 47.1989 123.201 47.5039 123.201H47.1005Z" fill="#FFBCB7"/>
<path d="M43.5982 115.243C41.4738 115.243 39.7516 113.521 39.7516 111.397C39.7516 109.272 41.4738 107.55 43.5982 107.55C45.7226 107.55 47.4448 109.272 47.4448 111.397C47.4448 113.521 45.7226 115.243 43.5982 115.243Z" fill="white"/>
<path d="M87.605 126.507L98.9973 132.499C100.561 132.848 102.185 132.83 103.742 132.448C105.298 132.066 106.745 131.329 107.969 130.295L115.181 124.215C115.464 123.976 115.69 123.677 115.842 123.339C115.994 123.001 116.068 122.634 116.059 122.263C116.049 121.893 115.957 121.529 115.788 121.2C115.619 120.87 115.378 120.583 115.082 120.359L110.252 116.699C109.112 115.831 107.773 115.262 106.357 115.044C104.942 114.826 103.494 114.965 102.145 115.45L84.8995 121.539L87.605 126.507Z" fill="#660066"/>
<path d="M43.5982 115.243C41.4738 115.243 39.7516 113.521 39.7516 111.397C39.7516 109.272 41.4738 107.55 43.5982 107.55C45.7226 107.55 47.4448 109.272 47.4448 111.397C47.4448 113.521 45.7226 115.243 43.5982 115.243Z" fill="#660066"/>
<path d="M168.768 187.105L171.957 188.562C172.049 188.604 172.15 188.621 172.25 188.614C172.351 188.607 172.448 188.575 172.533 188.52C172.618 188.466 172.688 188.392 172.737 188.303C172.786 188.215 172.812 188.116 172.813 188.016V185.137C172.813 184.575 172.656 184.024 172.362 183.546C172.067 183.067 171.645 182.68 171.143 182.428L166.624 180.168L168.094 186.26C168.134 186.443 168.215 186.615 168.332 186.761C168.449 186.908 168.598 187.025 168.768 187.105V187.105Z" fill="#FF720E"/>
<path d="M185.624 148.601L183.96 149.713C182.137 150.928 180.491 150.193 179.756 147.891C178.955 145.394 177.053 144.793 175.104 146.427L175 146.512C173.391 147.866 171.775 147.727 170.815 146.093L169.679 144.192C169.386 143.64 168.886 143.227 168.289 143.044C166.327 142.527 159.311 146.688 158.303 150.521L160.21 159.28L186.517 166.216L189.262 155.817C190.246 152.076 189.499 148.632 187.592 148.128C187.249 148.06 186.896 148.068 186.556 148.15C186.217 148.232 185.899 148.386 185.624 148.601Z" fill="#FF720E"/>
<path d="M129.694 162.098C129.694 162.098 136.375 152.471 158.302 150.527C183.504 148.827 198.932 155.18 209.324 158.794C212.583 159.948 215.94 160.806 219.353 161.357C220.351 161.505 221.263 162.007 221.922 162.772C222.582 163.536 222.944 164.512 222.944 165.521C222.944 166.531 222.582 167.506 221.922 168.271C221.263 169.035 220.351 169.537 219.353 169.685C195.372 173.329 211.414 182.89 168.938 181.675C164.614 181.69 160.304 181.191 156.098 180.187C157.233 179.294 158.357 178.365 159.45 177.417C161.88 175.152 166.636 171.228 165.567 167.486C163.872 162.991 160.313 159.389 156.426 156.735C160.028 159.645 163.198 163.344 164.516 167.826C164.899 170.031 162.913 171.799 161.479 173.293C158.942 175.568 156.222 177.63 153.346 179.458C145.304 177.104 137.822 173.145 131.352 167.82C132.413 166.958 133.759 166.524 135.124 166.605C133.064 165.433 131.226 163.907 129.694 162.098ZM147.661 169.673H147.351C147.539 169.673 147.722 169.673 147.91 169.673H147.661Z" fill="#D4EFEE"/>
<path d="M145.499 164.76C144.187 164.76 143.124 163.696 143.124 162.385C143.124 161.073 144.187 160.01 145.499 160.01C146.81 160.01 147.874 161.073 147.874 162.385C147.874 163.696 146.81 164.76 145.499 164.76Z" fill="white"/>
<path d="M172.669 171.714L179.702 175.413C180.668 175.629 181.671 175.618 182.632 175.382C183.592 175.146 184.486 174.691 185.242 174.053L189.694 170.299C189.869 170.151 190.009 169.967 190.103 169.758C190.196 169.549 190.242 169.322 190.236 169.094C190.23 168.865 190.173 168.641 190.069 168.437C189.965 168.233 189.816 168.056 189.633 167.918L186.651 165.658C185.947 165.122 185.121 164.771 184.247 164.636C183.372 164.502 182.479 164.588 181.646 164.887L170.998 168.647L172.669 171.714Z" fill="#FF720E"/>
<path d="M145.499 164.76C144.187 164.76 143.124 163.696 143.124 162.385C143.124 161.073 144.187 160.01 145.499 160.01C146.81 160.01 147.874 161.073 147.874 162.385C147.874 163.696 146.81 164.76 145.499 164.76Z" fill="#FF720E"/>
<path d="M205.788 257.79L203.473 259.336C200.939 261.026 198.649 260.004 197.627 256.802C196.512 253.33 193.868 252.494 191.156 254.766L191.013 254.884C188.774 256.768 186.527 256.574 185.192 254.301L183.612 251.657C183.205 250.89 182.509 250.315 181.678 250.061C178.949 249.343 169.192 255.129 167.79 260.46L170.442 272.642L207.03 282.289L210.848 267.826C212.217 262.623 211.178 257.833 208.525 257.131C208.048 257.038 207.557 257.049 207.085 257.162C206.612 257.276 206.17 257.49 205.788 257.79Z" fill="#660066"/>
<path d="M128 276.562C128 276.562 137.293 263.172 167.789 260.469C202.839 258.104 224.297 266.94 238.751 271.966C243.283 273.571 247.951 274.764 252.698 275.531C254.087 275.737 255.355 276.436 256.272 277.499C257.189 278.562 257.693 279.919 257.693 281.322C257.693 282.726 257.189 284.083 256.272 285.146C255.355 286.209 254.087 286.907 252.698 287.113C219.346 292.182 241.657 305.479 182.581 303.789C176.567 303.81 170.572 303.116 164.723 301.72C166.302 300.478 167.865 299.185 169.386 297.867C172.765 294.716 179.38 289.259 177.893 284.055C175.536 277.804 170.585 272.794 165.179 269.103C170.188 273.149 174.598 278.294 176.431 284.528C176.963 287.595 174.201 290.053 172.207 292.131C168.679 295.295 164.895 298.163 160.896 300.706C149.711 297.432 139.305 291.926 130.306 284.52C131.782 283.32 133.654 282.718 135.552 282.83C132.687 281.2 130.131 279.078 128 276.562ZM152.989 287.097H152.558C152.82 287.097 153.073 287.097 153.335 287.097H152.989Z" fill="#FFBCB7"/>
<path d="M149.981 280.263C148.157 280.263 146.678 278.785 146.678 276.96C146.678 275.136 148.157 273.657 149.981 273.657C151.805 273.657 153.284 275.136 153.284 276.96C153.284 278.785 151.805 280.263 149.981 280.263Z" fill="white"/>
<path d="M149.981 280.263C148.157 280.263 146.678 278.785 146.678 276.96C146.678 275.136 148.157 273.657 149.981 273.657C151.805 273.657 153.284 275.136 153.284 276.96C153.284 278.785 151.805 280.263 149.981 280.263Z" fill="#660066"/>
<path d="M147.754 248.832L158.689 262.413C160.452 263.69 162.486 264.542 164.633 264.904C166.78 265.266 168.982 265.127 171.066 264.498L183.337 260.782C183.819 260.637 184.262 260.385 184.634 260.045C185.005 259.705 185.296 259.286 185.483 258.819C185.67 258.351 185.75 257.848 185.717 257.346C185.683 256.843 185.537 256.355 185.289 255.917L181.279 248.765C180.322 247.068 178.956 245.636 177.306 244.6C175.656 243.563 173.773 242.955 171.828 242.83L147.1 241.2L147.754 248.832Z" fill="#FF720E"/>
<path d="M102.989 271.059L110.006 274.267C110.209 274.358 110.43 274.397 110.652 274.381C110.873 274.365 111.087 274.294 111.274 274.174C111.461 274.055 111.615 273.891 111.723 273.697C111.831 273.503 111.888 273.286 111.891 273.064V266.728C111.89 265.491 111.546 264.28 110.897 263.227C110.248 262.175 109.319 261.323 108.215 260.766L98.2703 255.794L101.505 269.201C101.592 269.604 101.772 269.981 102.029 270.304C102.286 270.626 102.615 270.885 102.989 271.059V271.059Z" fill="#FF720E"/>
<path d="M140.082 186.327L136.42 188.773C132.41 191.446 128.788 189.829 127.17 184.763C125.406 179.269 121.222 177.946 116.931 181.541L116.704 181.728C113.162 184.709 109.606 184.402 107.494 180.806L104.995 176.622C104.35 175.408 103.248 174.499 101.934 174.096C97.616 172.96 82.1773 182.116 79.9585 190.551L84.1557 209.826L142.047 225.09L148.089 202.206C150.255 193.972 148.611 186.393 144.413 185.284C143.659 185.136 142.882 185.153 142.134 185.333C141.387 185.513 140.687 185.852 140.082 186.327Z" fill="#FF720E"/>
<path d="M17 216.029C17 216.029 31.7035 194.842 79.9578 190.565C135.417 186.822 169.369 200.804 192.239 208.757C199.411 211.296 206.797 213.184 214.308 214.398C216.505 214.724 218.512 215.829 219.963 217.511C221.414 219.193 222.212 221.34 222.212 223.561C222.212 225.782 221.414 227.93 219.963 229.612C218.512 231.294 216.505 232.398 214.308 232.724C161.536 240.744 196.837 261.784 103.363 259.11C93.8474 259.143 84.3615 258.044 75.1056 255.835C77.6052 253.87 80.0781 251.825 82.4841 249.74C87.8308 244.754 98.2971 236.119 95.9445 227.885C92.2152 217.994 84.3822 210.067 75.8274 204.226C83.7539 210.629 90.7314 218.769 93.632 228.634C94.4742 233.486 90.1032 237.376 86.9486 240.664C81.365 245.67 75.3787 250.208 69.0504 254.231C51.3522 249.052 34.8871 240.339 20.6491 228.62C22.9843 226.723 25.946 225.769 28.9499 225.947C24.4163 223.367 20.3715 220.009 17 216.029ZM56.5391 232.697H55.8574C56.2717 232.697 56.6727 232.697 57.0871 232.697H56.5391Z" fill="#D4EFEE"/>
<path d="M51.7804 221.885C48.8939 221.885 46.554 219.545 46.554 216.659C46.554 213.772 48.8939 211.432 51.7804 211.432C54.6669 211.432 57.0068 213.772 57.0068 216.659C57.0068 219.545 54.6669 221.885 51.7804 221.885Z" fill="white"/>
<path d="M111.572 237.19L127.051 245.33C129.176 245.804 131.382 245.781 133.497 245.261C135.612 244.742 137.578 243.741 139.241 242.336L149.039 234.075C149.424 233.751 149.732 233.344 149.938 232.885C150.145 232.426 150.245 231.926 150.232 231.423C150.219 230.92 150.094 230.426 149.864 229.978C149.634 229.53 149.307 229.14 148.906 228.835L142.342 223.863C140.794 222.684 138.975 221.911 137.051 221.614C135.127 221.318 133.16 221.507 131.328 222.165L107.896 230.439L111.572 237.19Z" fill="#FF720E"/>
<path d="M51.7804 221.885C48.8939 221.885 46.554 219.545 46.554 216.659C46.554 213.772 48.8939 211.432 51.7804 211.432C54.6669 211.432 57.0068 213.772 57.0068 216.659C57.0068 219.545 54.6669 221.885 51.7804 221.885Z" fill="#FF720E"/>
</g>
<defs>
<clipPath id="clip0_520_8712">
<path d="M0 0H152C165.255 0 176 10.7452 176 24V272C176 285.255 165.255 296 152 296H0V0Z" fill="white"/>
</clipPath>
</defs>
</svg>
